<?xml version="1.0" standalone="no"?>
<!DOCTYPE svg PUBLIC "-//W3C//DTD SVG 20010904//EN"
 "http://www.w3.org/TR/2001/REC-SVG-20010904/DTD/svg10.dtd">
<svg version="1.0" xmlns="http://www.w3.org/2000/svg"
 width="400.000000pt" height="400.000000pt" viewBox="0 0 400.000000 400.000000"
 preserveAspectRatio="xMidYMid meet">
<metadata>
Created by potrace 1.11, written by Peter Selinger 2001-2013
</metadata>
<g transform="translate(0.000000,400.000000) scale(0.100000,-0.100000)"
fill="#000000" stroke="none">
<path d="M1220 2000 l0 -650 140 0 140 0 0 229 0 229 143 4 c112 4 155 10 201
27 126 45 203 117 248 229 30 78 33 252 4 327 -41 108 -107 172 -222 214 -79
30 -195 41 -436 41 l-218 0 0 -650z m541 382 c48 -29 69 -75 69 -152 0 -131
-77 -190 -252 -190 l-78 0 0 186 0 186 113 -3 c95 -4 118 -8 148 -27z"/>
<path d="M2672 2623 c-7 -22 -448 -1205 -470 -1261 -3 -10 23 -12 124 -10
l127 3 234 625 c128 344 236 635 239 648 6 22 6 22 -119 22 l-125 0 -10 -27z"/>
<path d="M535 2262 l-430 -217 -3 -65 -3 -65 438 -193 c241 -106 441 -192 446
-192 4 0 7 48 7 108 l0 107 -295 120 c-162 66 -295 122 -295 125 1 3 133 66
295 140 l294 135 1 108 c0 79 -3 107 -12 106 -7 0 -206 -98 -443 -217z"/>
<path d="M3012 2373 l3 -107 292 -136 c161 -74 293 -137 293 -140 0 -3 -132
-60 -292 -126 l-293 -120 -3 -108 c-2 -101 -1 -108 15 -104 10 3 211 90 446
193 l427 189 0 65 0 66 -435 218 c-239 119 -440 217 -445 217 -7 0 -10 -38 -8
-107z"/>
</g>
</svg>
